<svg width="471" height="314" viewBox="0 0 471 314" fill="none" xmlns="http://www.w3.org/2000/svg">
<path d="M471 39.6163C468.331 37.7847 465.714 35.953 462.993 35.1157C460.272 34.2783 457.55 34.383 454.672 33.8597C451.846 33.284 448.915 32.0803 447.136 29.9347C445.304 27.8413 444.572 24.806 442.531 22.7127C440.49 20.6193 437.14 19.4157 435.309 17.2177C433.477 14.9673 433.111 11.775 432.744 8.73967C432.326 5.70433 431.855 2.826 431.384 0H471V39.6163Z" fill="#7C799C"/>
<path d="M0 274.384C2.77367 275.64 5.54733 276.896 8.26867 277.89C10.9377 278.832 13.4497 279.512 16.328 280.14C19.154 280.821 22.2417 281.449 24.7013 283.019C27.161 284.589 29.045 287.048 30.615 289.613C32.185 292.177 33.441 294.846 34.0167 297.62C34.6447 300.341 34.4877 303.219 35.325 305.941C36.11 308.662 37.8893 311.331 39.6163 314H0V274.384Z" fill="#7C799C"/>
</svg>
