<svg width="314" height="501" viewBox="0 0 314 501" fill="none" xmlns="http://www.w3.org/2000/svg">
<path d="M155.482 3.09997e-05C162.861 10.6237 170.188 21.2474 173.59 32.028C176.991 42.861 176.416 53.851 178.561 65.2074C180.759 76.5637 185.731 88.234 194.209 95.5607C202.687 102.835 214.724 105.766 223.149 113.93C231.575 122.041 236.39 135.439 245.234 142.818C254.078 150.144 266.952 151.453 279.041 153.075C291.183 154.697 302.591 156.581 314 158.518V3.09997e-05H155.482Z" fill="#49436B"/>
<path d="M158.518 501C153.441 489.853 148.313 478.706 144.492 468.03C140.672 457.354 138.055 447.097 135.439 435.793C132.77 424.489 130.153 412.086 123.925 402.195C117.698 392.251 107.911 384.872 97.6017 378.592C87.3444 372.312 76.616 367.131 65.5737 364.829C54.5314 362.526 43.2274 362.997 32.2374 359.752C21.2474 356.508 10.6237 349.495 4.62585e-05 342.482V501H158.518Z" fill="#49436B"/>
</svg>
