<svg width="471" height="314" viewBox="0 0 471 314" fill="none" xmlns="http://www.w3.org/2000/svg">
<path d="M471 118.849C463.045 113.354 455.091 107.859 446.979 105.295C438.867 102.783 430.599 103.201 422.068 101.579C413.59 99.9043 404.798 96.241 399.356 89.8563C393.861 83.4717 391.663 74.4703 385.592 68.138C379.469 61.8057 369.421 58.1947 363.874 51.6007C358.379 44.9543 357.384 35.325 356.181 26.219C354.977 17.113 353.564 8.53033 352.151 0H471V118.849Z" fill="#5D587E"/>
<path d="M0 195.151C8.37333 198.919 16.6943 202.739 24.7537 205.618C32.7607 208.496 40.4013 210.485 48.9317 212.421C57.4097 214.41 66.6727 216.398 74.104 221.056C81.5353 225.714 87.0827 233.093 91.7927 240.786C96.5027 248.479 100.375 256.538 102.102 264.807C103.882 273.075 103.463 281.606 105.923 289.822C108.382 298.038 113.616 306.045 118.849 314H0V195.151Z" fill="#5D587E"/>
</svg>
