<svg width="471" height="314" viewBox="0 0 471 314" fill="none" xmlns="http://www.w3.org/2000/svg">
<path d="M471 79.2327C465.714 75.5693 460.376 71.906 454.986 70.2313C449.596 68.5043 444.048 68.8183 438.396 67.7193C432.744 66.6203 426.883 64.1607 423.22 59.9217C419.556 55.6303 418.143 49.612 414.061 45.4253C409.979 41.1863 403.281 38.779 399.617 34.383C395.902 29.987 395.274 23.55 394.489 17.4793C393.651 11.4087 392.709 5.70433 391.767 0H471V79.2327Z" fill="#716E92"/>
<path d="M0 234.767C5.54733 237.279 11.147 239.844 16.485 241.78C21.823 243.664 26.9517 244.972 32.6037 246.281C38.2557 247.589 44.4833 248.95 49.4027 252.037C54.3743 255.177 58.09 260.044 61.23 265.173C64.37 270.302 66.9343 275.692 68.0857 281.187C69.237 286.734 68.9753 292.386 70.5976 297.881C72.22 303.376 75.7263 308.662 79.2327 314H0V234.767Z" fill="#716E92"/>
</svg>
