<svg width="471" height="314" viewBox="0 0 471 314" fill="none" xmlns="http://www.w3.org/2000/svg">
<path d="M471 198.134C457.707 188.923 444.467 179.765 430.965 175.526C417.411 171.287 403.647 172.02 389.465 169.246C375.282 166.525 360.681 160.349 351.575 149.778C342.469 139.154 338.806 124.082 328.601 113.563C318.396 102.992 301.702 97.026 292.491 85.9837C283.333 74.9413 281.658 58.8227 279.669 43.646C277.681 28.5217 275.273 14.2347 272.866 0H471V198.134Z" fill="#363058"/>
<path d="M0 115.866C13.9207 122.251 27.8413 128.583 41.2387 133.398C54.5837 138.212 67.353 141.457 81.5353 144.754C95.6653 147.999 111.156 151.296 123.507 159.093C135.91 166.891 145.173 179.137 153.023 191.959C160.873 204.78 167.31 218.23 170.188 232.046C173.119 245.81 172.491 259.992 176.52 273.703C180.602 287.415 189.342 300.707 198.134 314H0V115.866Z" fill="#363058"/>
</svg>
