<svg width="314" height="501" viewBox="0 0 314 501" fill="none" xmlns="http://www.w3.org/2000/svg">
<path d="M115.866 3.84337e-05C125.077 13.2927 134.235 26.533 138.474 40.035C142.713 53.5894 141.98 67.353 144.754 81.5354C147.475 95.7177 153.651 110.319 164.222 119.425C174.846 128.531 189.918 132.194 200.437 142.399C211.008 152.604 216.974 169.298 228.016 178.509C239.059 187.667 255.177 189.342 270.354 191.331C285.478 193.319 299.765 195.727 314 198.134V3.84337e-05H115.866Z" fill="#363058"/>
<path d="M198.134 501C191.749 487.079 185.417 473.159 180.602 459.761C175.788 446.416 172.543 433.647 169.246 419.465C166.001 405.335 162.704 389.844 154.907 377.493C147.109 365.09 134.863 355.827 122.041 347.977C109.22 340.127 95.77 333.69 81.954 330.812C68.1903 327.881 54.008 328.509 40.2967 324.48C26.5853 320.398 13.2927 311.658 7.91613e-06 302.866V501H198.134Z" fill="#363058"/>
</svg>
