<svg width="314" height="501" viewBox="0 0 314 501" fill="none" xmlns="http://www.w3.org/2000/svg">
<path d="M234.767 1.49363e-05C238.431 5.28568 242.094 10.6237 243.769 16.014C245.496 21.4043 245.182 26.9517 246.281 32.6037C247.38 38.2557 249.839 44.117 254.078 47.7803C258.37 51.4437 264.388 52.8567 268.575 56.9387C272.814 61.0207 275.221 67.7193 279.617 71.3827C284.013 75.0983 290.45 75.7263 296.521 76.5113C302.591 77.3487 308.296 78.2907 314 79.2327V1.49363e-05H234.767Z" fill="#716E92"/>
<path d="M79.2327 501C76.7207 495.453 74.1563 489.853 72.22 484.515C70.336 479.177 69.0277 474.048 67.7193 468.396C66.411 462.744 65.0503 456.517 61.9627 451.597C58.8227 446.626 53.9557 442.91 48.827 439.77C43.6983 436.63 38.308 434.066 32.813 432.914C27.2657 431.763 21.6137 432.025 16.1187 430.402C10.6237 428.78 5.33801 425.274 1.49363e-05 421.767V501H79.2327Z" fill="#716E92"/>
</svg>
