<svg width="314" height="501" viewBox="0 0 314 501" fill="none" xmlns="http://www.w3.org/2000/svg">
<path d="M274.384 7.46814e-06C276.215 2.66901 278.047 5.28567 278.884 8.00701C279.722 10.7283 279.617 13.4497 280.14 16.328C280.716 19.154 281.92 22.0847 284.065 23.864C286.159 25.6957 289.194 26.4283 291.287 28.4693C293.381 30.5103 294.584 33.8597 296.782 35.6913C299.033 37.523 302.225 37.8893 305.26 38.2557C308.296 38.6743 311.174 39.1453 314 39.6163V7.46814e-06H274.384Z" fill="#7C799C"/>
<path d="M39.6163 501C38.3603 498.226 37.1043 495.453 36.11 492.731C35.168 490.062 34.4877 487.55 33.8597 484.672C33.1793 481.846 32.5513 478.758 30.9813 476.299C29.4113 473.839 26.9517 471.955 24.3873 470.385C21.823 468.815 19.154 467.559 16.3803 466.983C13.659 466.355 10.7807 466.512 8.05934 465.675C5.33801 464.89 2.66901 463.111 7.46814e-06 461.384V501H39.6163Z" fill="#7C799C"/>
</svg>
