<svg width="471" height="314" viewBox="0 0 471 314" fill="none" xmlns="http://www.w3.org/2000/svg">
<path d="M471 158.518C460.376 151.139 449.753 143.812 438.972 140.41C428.139 137.009 417.149 137.584 405.793 135.439C394.436 133.241 382.766 128.269 375.439 119.791C368.165 111.313 365.234 99.2763 357.07 90.8507C348.959 82.425 335.561 77.6103 328.182 68.766C320.856 59.9217 319.547 47.0477 317.925 34.9587C316.303 22.8173 314.419 11.4087 312.482 0H471V158.518Z" fill="#49436B"/>
<path d="M0 155.482C11.147 160.559 22.294 165.687 32.97 169.508C43.646 173.328 53.9033 175.945 65.2073 178.561C76.5113 181.23 88.9143 183.847 98.8053 190.075C108.749 196.302 116.128 206.089 122.408 216.398C128.688 226.656 133.869 237.384 136.171 248.426C138.474 259.469 138.003 270.773 141.248 281.763C144.492 292.753 151.505 303.376 158.518 314H0V155.482Z" fill="#49436B"/>
</svg>
