<svg width="314" height="501" viewBox="0 0 314 501" fill="none" xmlns="http://www.w3.org/2000/svg">
<path d="M195.151 3.14004e-05C200.646 7.9547 206.141 15.9094 208.705 24.021C211.217 32.1327 210.799 40.4014 212.421 48.9317C214.096 57.4097 217.759 66.2017 224.144 71.6444C230.528 77.1394 239.53 79.3374 245.862 85.408C252.194 91.531 255.805 101.579 262.399 107.126C269.046 112.621 278.675 113.616 287.781 114.819C296.887 116.023 305.47 117.436 314 118.849V3.14004e-05L195.151 3.14004e-05Z" fill="#5D587E"/>
<path d="M118.849 501C115.081 492.627 111.261 484.306 108.382 476.246C105.504 468.239 103.515 460.599 101.579 452.068C99.5904 443.59 97.6017 434.327 92.944 426.896C88.2864 419.465 80.9074 413.917 73.2144 409.207C65.5214 404.497 57.462 400.625 49.1934 398.898C40.9247 397.118 32.3944 397.537 24.178 395.077C15.9617 392.618 7.9547 387.384 3.14004e-05 382.151L3.14004e-05 501H118.849Z" fill="#5D587E"/>
</svg>
