<svg xmlns="http://www.w3.org/2000/svg" viewBox="0 0 86.09 19.75"><defs><style>.cls-1{fill:#b7dfc9;}</style></defs><g id="Layer_2" data-name="Layer 2"><g id="Layer_1-2" data-name="Layer 1"><path class="cls-1" d="M36.93,9.83c0,3-1.51,5.3-5.82,5.3H25.79V4.54h5.32C35.42,4.54,36.93,6.78,36.93,9.83Zm-3.51,0a2.09,2.09,0,0,0-2.31-2.37H29.29V12.2h1.82A2.1,2.1,0,0,0,33.42,9.83Z"/><path class="cls-1" d="M37.49,9.83c0-3.39,2.36-5.64,6-5.64s6,2.25,6,5.64-2.36,5.65-6,5.65S37.49,13.22,37.49,9.83Zm8.54,0a2.54,2.54,0,1,0-5.07,0,2.54,2.54,0,1,0,5.07,0Z"/><path class="cls-1" d="M49.36,4.54H52.9L54,11.4h.3l1.51-6.86h2.78l1.51,6.86h.3l1.14-6.86h3.54L63.06,15.13H58.35l-1-5.1h-.3l-1,5.1H51.42Z"/><path class="cls-1" d="M65.18,11.58h3.13c0,.72.65,1.16,2.16,1.18,1.33,0,2-.37,2-.86,0-.34-.19-.69-1.22-.85l-1.36-.21c-2-.33-4.41-.57-4.41-3.28,0-2.09,1.7-3.37,5.06-3.37,3,0,5.16.84,5.1,3.86H72.47c-.12-.7-.72-1.14-2-1.14-1.16,0-1.64.35-1.64.83,0,.3.19.67,1,.79l1.12.19c2.1.36,5,.42,5,3.32,0,2.3-1.79,3.45-5.42,3.44S65.09,14.33,65.18,11.58Z"/><path class="cls-1" d="M76.55,4.54h9.54v2.8H80V8.69h5.83V11H80v1.35h6v2.8H76.55Z"/><path class="cls-1" d="M19.75,3.29V19.75S12.27,18,10.33,8.41h0A.46.46,0,0,0,9.87,8a.45.45,0,0,0-.45.36h0C7.47,18,0,19.75,0,19.75V3.29A3.29,3.29,0,0,1,3.29,0H16.45A3.29,3.29,0,0,1,19.75,3.29Z"/></g></g></svg>